<?xml version="1.0" encoding="iso-8859-1"?>
<!-- Generator: Adobe Illustrator 19.0.0, SVG Export Plug-In . SVG Version: 6.00 Build 0)  -->
<svg version="1.1" id="Layer_1" xmlns="http://www.w3.org/2000/svg" xmlns:xlink="http://www.w3.org/1999/xlink" x="0px" y="0px"
	 viewBox="0 0 512.009 512.009" style="enable-background:new 0 0 512.009 512.009;" xml:space="preserve">
<rect x="1.444" y="376.623" transform="matrix(-0.7071 0.7071 -0.7071 -0.7071 454.4618 645.3986)" style="fill:#298983;" width="184.24" height="80.396"/>
<polygon style="fill:#0E665D;" points="75.372,378.108 131.547,380.31 132.298,435.034 159.659,407.672 159.332,348.872 
	105.456,348.221 "/>
<rect x="43.882" y="282.103" style="fill:#A5F2E5;" width="184.242" height="80.397"/>
<polygon style="fill:#62D9C7;" points="228.295,421.532 228.295,466.507 147.896,466.507 147.896,282.212 228.295,282.212 
	228.295,377.034 "/>
<polyline style="fill:#88EAD9;" points="147.881,362.47 132.603,362.456 132.532,282.1 147.909,282.113 147.982,362.47 "/>
<rect x="326.315" y="376.626" transform="matrix(0.7071 0.7071 -0.7071 0.7071 417.2957 -173.7937)" style="fill:#298983;" width="184.24" height="80.396"/>
<polygon style="fill:#0E665D;" points="436.638,378.108 380.461,380.31 379.711,435.034 352.349,407.672 352.678,348.872 
	406.554,348.221 "/>
<rect x="283.872" y="282.103" style="fill:#A5F2E5;" width="184.242" height="80.397"/>
<polygon style="fill:#62D9C7;" points="283.714,421.532 283.714,466.507 364.112,466.507 364.112,282.212 283.714,282.212 
	283.714,377.034 "/>
<polyline style="fill:#88EAD9;" points="364.127,362.47 379.405,362.456 379.476,282.1 364.099,282.113 364.027,362.47 "/>
<rect x="1.443" y="54.987" transform="matrix(-0.7071 -0.7071 0.7071 -0.7071 92.4158 228.6506)" style="fill:#298983;" width="184.24" height="80.396"/>
<polygon style="fill:#0E665D;" points="75.372,133.905 131.547,131.702 132.298,76.978 159.659,104.341 159.332,163.14 
	105.456,163.791 "/>
<rect x="43.882" y="149.511" style="fill:#A5F2E5;" width="184.242" height="80.397"/>
<polygon style="fill:#62D9C7;" points="228.295,90.479 228.295,45.505 147.896,45.505 147.896,229.8 228.295,229.8 228.295,134.979 
	"/>
<polyline style="fill:#88EAD9;" points="147.881,149.542 132.603,149.555 132.532,229.913 147.909,229.9 147.982,149.542 "/>
<rect x="326.326" y="54.988" transform="matrix(0.7071 -0.7071 0.7071 0.7071 55.2532 323.7654)" style="fill:#298983;" width="184.24" height="80.396"/>
<polygon style="fill:#0E665D;" points="436.638,133.905 380.461,131.702 379.711,76.978 352.349,104.341 352.678,163.14 
	406.554,163.791 "/>
<rect x="283.872" y="149.511" style="fill:#A5F2E5;" width="184.242" height="80.397"/>
<polygon style="fill:#62D9C7;" points="283.714,90.479 283.714,45.505 364.112,45.505 364.112,229.8 283.714,229.8 283.714,134.979 
	"/>
<polyline style="fill:#88EAD9;" points="364.127,149.542 379.405,149.555 379.476,229.913 364.099,229.9 364.027,149.542 "/>
<g>
</g>
<g>
</g>
<g>
</g>
<g>
</g>
<g>
</g>
<g>
</g>
<g>
</g>
<g>
</g>
<g>
</g>
<g>
</g>
<g>
</g>
<g>
</g>
<g>
</g>
<g>
</g>
<g>
</g>
</svg>
