<?xml version="1.0" encoding="iso-8859-1"?>
<!-- Generator: Adobe Illustrator 19.0.0, SVG Export Plug-In . SVG Version: 6.00 Build 0)  -->
<svg version="1.1" id="Layer_1" xmlns="http://www.w3.org/2000/svg" xmlns:xlink="http://www.w3.org/1999/xlink" x="0px" y="0px"
	 viewBox="0 0 512.004 512.004" style="enable-background:new 0 0 512.004 512.004;" xml:space="preserve">
<rect x="254.084" y="101.931" transform="matrix(-0.7071 0.7071 -0.7071 -0.7071 701.1646 54.8223)" style="fill:#298983;" width="170.288" height="141.392"/>
<rect x="150.198" y="243.354" transform="matrix(-0.7071 0.7071 -0.7071 -0.7071 559.7436 396.2459)" style="fill:#62D9C7;" width="95.217" height="141.392"/>
<rect x="36.045" y="357.497" transform="matrix(-0.7071 0.7071 -0.7071 -0.7071 445.584 671.8181)" style="fill:#298983;" width="95.217" height="141.392"/>
<polygon style="fill:#0E665D;" points="243.073,168.998 341.865,172.87 343.183,269.107 391.302,220.989 390.726,117.584 
	295.979,116.438 "/>
<rect x="187.703" y="0.157" style="fill:#A5F2E5;" width="324.012" height="141.393"/>
<polygon style="fill:#62D9C7;" points="512.004,245.365 512.004,324.456 370.615,324.456 370.615,0.355 512.004,0.355 
	512.004,167.109 "/>
<polyline style="fill:#88EAD9;" points="370.59,141.497 343.722,141.473 343.595,0.157 370.64,0.182 370.765,141.498 "/>
<g>
</g>
<g>
</g>
<g>
</g>
<g>
</g>
<g>
</g>
<g>
</g>
<g>
</g>
<g>
</g>
<g>
</g>
<g>
</g>
<g>
</g>
<g>
</g>
<g>
</g>
<g>
</g>
<g>
</g>
</svg>
